<svg viewBox="0 0 64 64" fill="#f59e0b" xmlns="http://www.w3.org/2000/svg"><path d="M61.27 58.21L56 38.87V11a3.009 3.009 0 00-3-3h-8.79l-3.72-3.73a1 1 0 00-1.34-.06l-2.8 2.28L36 2.9a1.015 1.015 0 00-1-.9h-6a1.015 1.015 0 00-1 .9l-.35 3.59-2.8-2.28a1 1 0 00-1.34.06L19.79 8H11a3.009 3.009 0 00-3 3v27.87L2.73 58.21A2.989 2.989 0 005.62 62h52.76a2.989 2.989 0 002.89-3.79zM24.29 6.33l3.53 2.89a1.019 1.019 0 001.02.15 1.007 1.007 0 00.61-.83L29.9 4h4.2l.45 4.54a1.007 1.007 0 00.61.83 1.019 1.019 0 001.02-.15l3.53-2.89 2.96 2.96-2.89 3.53a1.019 1.019 0 00-.15 1.02 1.007 1.007 0 00.83.61l4.54.45v4.2l-4.54.45a1.007 1.007 0 00-.83.61 1.019 1.019 0 00.15 1.02l2.89 3.53-2.96 2.96-3.53-2.89a1.019 1.019 0 00-1.02-.15 1.007 1.007 0 00-.61.83L34.1 30h-4.2l-.45-4.54a1.007 1.007 0 00-.61-.83 1.019 1.019 0 00-1.02.15l-3.53 2.89-2.96-2.96 2.89-3.53a1.019 1.019 0 00.15-1.02 1.007 1.007 0 00-.83-.61L19 19.1v-4.2l4.54-.45a1.007 1.007 0 00.83-.61 1.019 1.019 0 00-.15-1.02l-2.89-3.53zM10 11a1 1 0 011-1h8.32l2.17 2.65-3.59.35a1.015 1.015 0 00-.9 1v6a1.015 1.015 0 00.9 1l3.59.35-2.28 2.8a1 1 0 00.06 1.34l4.24 4.24a1 1 0 001.34.06l2.8-2.28.35 3.59a1.015 1.015 0 001 .9h6a1.015 1.015 0 001-.9l.35-3.59 2.8 2.28a1 1 0 001.34-.06l4.24-4.24a1 1 0 00.06-1.34l-2.28-2.8L46.1 21a1.015 1.015 0 00.9-1v-6a1.015 1.015 0 00-.9-1l-3.59-.35L44.68 10H53a1 1 0 011 1v27H10zm49.18 48.61a.99.99 0 01-.8.39H5.62a.99.99 0 01-.8-.39 1.02 1.02 0 01-.17-.88L9.76 40h44.48l5.11 18.73a1.02 1.02 0 01-.17.88z"/><path d="M40.97 52.757A1 1 0 0040 52H24a1 1 0 00-.97.757l-1 4A1 1 0 0023 58h18a1 1 0 00.97-1.243zM24.281 56l.5-2h14.438l.5 2zM27 34h10v2H27zM12 42h4v2h-4zM18 42h4v2h-4zM24 42h4v2h-4zM36 42h4v2h-4zM42 42h4v2h-4zM48 42h4v2h-4zM30 42h4v2h-4zM12 46h4v2h-4zM18 46h4v2h-4zM24 46h4v2h-4zM36 46h4v2h-4zM42 46h4v2h-4zM48 46h4v2h-4zM30 46h4v2h-4zM32 23a6 6 0 10-6-6 6.006 6.006 0 006 6zm0-10a4 4 0 11-4 4 4 4 0 014-4z"/></svg>