<svg viewBox="0 0 512.002 512.002" fill="#f59e0b" xmlns="http://www.w3.org/2000/svg"><path d="M484.098 168.413h-28.693v-96.97c0-22.228-18.084-40.311-40.312-40.311H67.756c-22.228 0-40.311 18.083-40.311 40.311v246.11c0 9.259 3.264 17.963 8.747 24.897H12.979C5.822 342.449 0 348.296 0 355.481v19.028c0 18.29 14.769 33.169 32.922 33.169h186.003c4.143 0 7.5-3.358 7.5-7.5s-3.357-7.5-7.5-7.5H32.922c-9.882 0-17.922-8.15-17.922-18.169v-17.06h315.961v35.229h-77.036c-4.143 0-7.5 3.358-7.5 7.5s3.357 7.5 7.5 7.5h77.036v45.288c0 15.387 12.518 27.905 27.904 27.905h125.232c15.387 0 27.904-12.518 27.904-27.905V196.318c.001-15.387-12.517-27.905-27.903-27.905zM330.961 342.449H63.22c-11.882-2.179-20.774-12.784-20.774-24.897V71.443c0-13.957 11.354-25.311 25.311-25.311h347.337c13.957 0 25.312 11.354 25.312 25.311v96.971h-14.477v-94.64c0-7.381-6.005-13.387-13.386-13.387H70.309c-7.382 0-13.387 6.005-13.387 13.387v241.08c0 7.381 6.005 13.387 13.387 13.387h260.653v14.208zm79.967-267.063v19.913h-300.74V75.386zm-315.74 0v19.913H71.921V75.386zm235.773 120.931V313.24H71.921V110.299h339.007v58.114h-52.062c-15.387 0-27.905 12.518-27.905 27.904zm15 29.445h15.081v15.018h-15.081zm151.041 227.204c0 7.116-5.789 12.905-12.904 12.905H358.865c-7.115 0-12.904-5.789-12.904-12.905v-21.495h151.041zm0-36.495H345.961V255.78h151.041zm0-175.691h-120.96v-15.018h120.96zm0-30.018H345.961v-14.445c0-7.115 5.789-12.904 12.904-12.904h125.232c7.115 0 12.904 5.789 12.904 12.904v14.445z"/><path d="M413.51 454.593h15.943c4.143 0 7.5-3.358 7.5-7.5s-3.357-7.5-7.5-7.5H413.51c-4.143 0-7.5 3.358-7.5 7.5s3.357 7.5 7.5 7.5zM266.171 199.078l-32.184-21.945c-10.185-6.946-24.017.362-24.017 12.691v43.891c0 12.326 13.827 19.638 24.017 12.691l32.184-21.945c8.936-6.093 8.934-19.292 0-25.383zm-8.451 12.99l-32.184 21.946c-.097.065-.18.123-.373.021-.192-.102-.192-.203-.192-.32v-43.891c0-.117 0-.218.192-.32a.403.403 0 01.185-.056c.076 0 .13.037.188.077l32.184 21.945c.067.046.158.108.158.299 0 .192-.091.254-.158.299z"/><path d="M236.425 141.552c-38.718 0-70.218 31.5-70.218 70.217s31.5 70.217 70.218 70.217 70.217-31.499 70.217-70.217-31.499-70.217-70.217-70.217zm0 125.435c-30.447 0-55.218-24.77-55.218-55.217s24.771-55.217 55.218-55.217c30.446 0 55.217 24.771 55.217 55.217s-24.771 55.217-55.217 55.217zM419.907 304.176c-9.527-6.496-22.422.367-22.422 11.85v38.2c0 11.577 12.974 18.292 22.423 11.849l28.01-19.1c8.344-5.688 8.342-18.011.001-23.699zm-7.422 48.805V317.27l26.186 17.856z"/><path d="M421.481 397.211c26.099 0 49.576-16.494 58.42-41.043a7.499 7.499 0 00-4.514-9.598 7.502 7.502 0 00-9.598 4.514c-6.708 18.618-24.515 31.127-44.309 31.127-25.963 0-47.085-21.123-47.085-47.085s21.122-47.085 47.085-47.085c20.626 0 38.666 13.202 44.892 32.851a7.5 7.5 0 1014.299-4.53c-8.208-25.911-31.995-43.32-59.19-43.32-34.233 0-62.085 27.852-62.085 62.085s27.852 62.084 62.085 62.084z"/></svg>