<svg xmlns="http://www.w3.org/2000/svg" fill="#f59e0b" data-name="Layer 1" viewBox="0 0 512 512"><path d="M444 414.589a5.836 5.836 0 00.7-5.433l-13.49-36.282a5.968 5.968 0 00-5.622-3.874H86.412a6.005 6.005 0 00-5.625 3.915L67.3 409.154A5.782 5.782 0 0072.922 417h366.156a5.852 5.852 0 004.922-2.411zM81.551 405l9.032-24h330.834l9.032 24zM108 157.112a6 6 0 00-6 6v66.616a6 6 0 0012 0v-66.616a6 6 0 00-6-6zM108 136.156a6 6 0 00-6 6v3.2a6 6 0 0012 0v-3.2a6 6 0 00-6-6zM256 54.541a6 6 0 006-6v-25.3a6 6 0 00-12 0v25.3a6 6 0 006 6zM351.3 150h25.313a6 6 0 000-12H351.3a6 6 0 000 12zM160.7 138h-25.315a6 6 0 000 12H160.7a6 6 0 000-12zM325.242 80.584a5.978 5.978 0 004.241-1.756l19.753-19.74a6 6 0 10-8.483-8.488L321 70.34a6 6 0 004.241 10.244zM182.517 78.828A6 6 0 00191 70.34L171.247 50.6a6 6 0 10-8.483 8.488zM208 149.415a6 6 0 006-6 44.875 44.875 0 0113.4-32.108 45.609 45.609 0 019.008-6.94 6 6 0 00-6.071-10.351 57.656 57.656 0 00-11.381 8.764A56.793 56.793 0 00202 143.415a6 6 0 006 6zM248.7 99.289a6.045 6.045 0 001.225-.126 45.667 45.667 0 015.484-.792 6 6 0 10-.99-11.959 57.616 57.616 0 00-6.931 1 6 6 0 001.212 11.877z"/><path d="M500.492 460L456.1 358.92a22.707 22.707 0 00-3.072-5.305 23.6 23.6 0 008.976-18.3v-227.05A26.582 26.582 0 00435.556 82H299.6a72.385 72.385 0 00-87.27 0H76.444A26.582 26.582 0 0050 108.265v227.048a23.683 23.683 0 009.536 18.774 23.116 23.116 0 00-2.767 4.738l-45.29 101.258h.025a5.951 5.951 0 00-.5 2.45v8.673A23.79 23.79 0 0034.559 495h442.882A23.79 23.79 0 00501 471.208v-8.673a7.691 7.691 0 00-.508-2.535zM213.41 96.892a60.479 60.479 0 1183.857 87.152A53.893 53.893 0 00280 223.333V224h-18v-49.812a10.268 10.268 0 003.843.717c5.736 0 8.548-4.182 10.059-6.429.24-.356.566-.842.818-1.167a6 6 0 00-.72-11.958c-5.735 0-8.547 4.182-10.058 6.429l-.1.149-.1-.149c-1.511-2.247-4.323-6.429-10.058-6.429s-8.546 4.183-10.057 6.43c-.03.047-.063.094-.1.144l-.1-.144c-1.51-2.247-4.322-6.43-10.057-6.43a6 6 0 00-.719 11.958c.252.325.578.81.817 1.166 1.51 2.247 4.322 6.43 10.057 6.43a10.127 10.127 0 004.468-.994V224H232v-.667a52.941 52.941 0 00-16.947-38.992 60.417 60.417 0 01-1.643-87.449zM224.1 255a2.01 2.01 0 010-4h63.8a1.984 1.984 0 011.808 2 2.118 2.118 0 01-1.96 2zm62.4 13.5c0 1-.811 1.5-1.807 1.5H227.3c-1 0-1.807-.5-1.807-1.5s.811-1.5 1.807-1.5h57.4c.993 0 1.8.5 1.8 1.5zM220.957 239c-1 0-1.834-.5-1.834-1.5s.785-1.5 1.782-1.5H291.1c1 0 1.808.5 1.808 1.5s-.811 1.5-1.808 1.5zM62 108.265A14.307 14.307 0 0176.265 94h123.583a72.38 72.38 0 00-7.448 11H94.264A17.264 17.264 0 0077 122.264V150a6 6 0 006 6 6 6 0 006-6v-26.991A6.027 6.027 0 0195.009 117h92.162a72.5 72.5 0 0019.768 76.182A40.915 40.915 0 01220 223.333v.3a13.949 13.949 0 00-12.943 13.767 13.775 13.775 0 004.4 10.057 13.758 13.758 0 003.214 15.616 12.7 12.7 0 00-1.173 5.557A13.784 13.784 0 00227.38 282h57.1c7.666 0 14.213-6.275 14.017-13.938a13.248 13.248 0 00-1.173-5.1 13.6 13.6 0 003.2-15.534 13.766 13.766 0 004.417-10.044A13.936 13.936 0 00292 223.631v-.348a41.823 41.823 0 0113.444-30.455A72.456 72.456 0 00324.821 117h92.915a5.264 5.264 0 015.264 5.264v195.778a5.975 5.975 0 01-5.958 5.958H94.958A5.975 5.975 0 0189 318.042V192a6 6 0 00-6-6 6 6 0 00-6 6v126.042A18.011 18.011 0 0094.958 336h322.778A17.264 17.264 0 00435 318.736V122.264A17.264 17.264 0 00417.736 105h-98.167a72.521 72.521 0 00-7.478-11h123.465A14.487 14.487 0 01450 108.444v226.869A11.721 11.721 0 01438.313 347H73.917A11.952 11.952 0 0162 335.083zm5.811 255.7a11.684 11.684 0 014.243-5l368.667-.187a12.068 12.068 0 014.386 5.293L485.813 457h-158.1l-8.206-24.843a6.038 6.038 0 00-5.7-4.157H198.186a6.038 6.038 0 00-5.7 4.157L184.284 457H26.26zM315.076 457H196.924l5.6-17h106.955zM489 471.208A11.778 11.778 0 01477.441 483H34.559A11.778 11.778 0 0123 471.208V469h466z"/></svg>