<svg viewBox="0 0 64 64" fill="#f59e0b" xmlns="http://www.w3.org/2000/svg" data-name="Layer 1"><path d="M6 5h2v2H6zM10 5h2v2h-2zM14 5h2v2h-2zM7 30h22a1 1 0 001-1V13a1 1 0 00-1-1H7a1 1 0 00-1 1v16a1 1 0 001 1zm1-16h20v14H8zM7 49h22a1 1 0 001-1V33a1 1 0 00-1-1H7a1 1 0 00-1 1v15a1 1 0 001 1zm1-15h20v13H8zM47 49h2v2h-2zM55 49h2v2h-2zM52 56a2 2 0 01-2-2h-2a4 4 0 008 0h-2a2 2 0 01-2 2z"/><path d="M22.5 20.132l-7-4A1 1 0 0014 17v8a1 1 0 001.5.868l7-4a1 1 0 000-1.736zM16 23.276v-4.552L19.984 21zM53 31a1 1 0 00.768-1.641l-5-6a1 1 0 00-.723-.359.965.965 0 00-.752.292l-1.467 1.468-2.067-2.41a1.031 1.031 0 00-1.518 0l-6 7A1 1 0 0037 31zm-13.826-2L43 24.536 46.826 29zm8.759-3.519L50.865 29H49.46l-2.329-2.717z"/><path d="M61 2H3a1 1 0 00-1 1v49a1 1 0 001 1h39.051A10 10 0 0062 52V3a1 1 0 00-1-1zm-9 58a8 8 0 118-8 8.009 8.009 0 01-8 8zm-8.647-13H34V14h22v28.841A9.965 9.965 0 0043.353 47zM60 46.026a10.088 10.088 0 00-2-2.007V13a1 1 0 00-1-1H33a1 1 0 00-1 1v35a1 1 0 001 1h9.461a9.886 9.886 0 00-.41 2H4V10h56zM60 8H4V4h56z"/><path d="M10 36h16v2H10zM10 40h16v2H10z"/></svg>